<svg width="15" height="14" viewBox="0 0 15 14" fill="none" xmlns="http://www.w3.org/2000/svg">
<g clip-path="url(#clip0_228_6551)">
<path d="M7.74984 12.8334C10.9715 12.8334 13.5832 10.2217 13.5832 7.00008C13.5832 3.77842 10.9715 1.16675 7.74984 1.16675C4.52817 1.16675 1.9165 3.77842 1.9165 7.00008C1.9165 7.93324 2.13562 8.81518 2.52519 9.59737C2.62872 9.80521 2.66318 10.0428 2.60316 10.2671L2.25572 11.5657C2.10489 12.1293 2.62059 12.645 3.18429 12.4942L4.48281 12.1468C4.70713 12.0867 4.94471 12.1212 5.15256 12.2247C5.93472 12.6143 6.81668 12.8334 7.74984 12.8334Z" fill="white" stroke="white"/>
<path d="M5.4165 7H5.42175M7.74459 7H7.74984M10.0779 7H10.0832" stroke="#9D9D9D" stroke-linecap="round" stroke-linejoin="round"/>
</g>
<defs>
<clipPath id="clip0_228_6551">
<rect width="14" height="14" fill="white" transform="translate(0.75)"/>
</clipPath>
</defs>
</svg>
