<svg width="14" height="14" viewBox="0 0 14 14" fill="none" xmlns="http://www.w3.org/2000/svg">
<path d="M11.8488 2.04562C10.5134 0.745625 8.74625 0 7 0C5.25375 0 3.48656 0.745625 2.15125 2.04562C0.764062 3.39594 0 5.15625 0 7C0 7.83344 0.273437 8.90906 1.0275 10.9234C1.78156 12.9378 3.28125 13.7812 3.91469 13.9191C4.09625 13.9587 4.30906 14 4.5 14C4.82901 14.0003 5.15231 13.9141 5.4375 13.75L5.875 13.5C6.34594 13.2244 6.48344 12.6209 6.2125 12.1453L3.49625 7.3775C3.43153 7.26341 3.34481 7.1633 3.24112 7.08296C3.13743 7.00262 3.01884 6.94366 2.8922 6.90948C2.76556 6.87529 2.6334 6.86658 2.50337 6.88383C2.37334 6.90109 2.24803 6.94397 2.13469 7.01L1.70688 7.26C1.54245 7.35633 1.39471 7.47864 1.26938 7.62219C1.25382 7.64044 1.23334 7.65383 1.21038 7.66077C1.18742 7.6677 1.16296 7.66789 1.1399 7.6613C1.11684 7.65471 1.09616 7.64163 1.08033 7.62361C1.0645 7.60559 1.05419 7.5834 1.05063 7.55969C1.01917 7.37473 1.00224 7.1876 1 7C1 5.42781 1.65625 3.9225 2.84875 2.76219C4 1.64219 5.51219 1 7 1C8.48781 1 10 1.64219 11.1512 2.76219C12.3438 3.9225 13 5.42781 13 7C12.9971 7.18765 12.9796 7.37478 12.9475 7.55969C12.9439 7.5834 12.9336 7.60559 12.9178 7.62361C12.902 7.64163 12.8813 7.65471 12.8582 7.6613C12.8352 7.66789 12.8107 7.6677 12.7877 7.66077C12.7648 7.65383 12.7443 7.64044 12.7288 7.62219C12.6034 7.47864 12.4557 7.35633 12.2913 7.26L11.8634 7.01C11.7501 6.94397 11.6248 6.90109 11.4948 6.88383C11.3647 6.86658 11.2326 6.87529 11.1059 6.90948C10.9793 6.94366 10.8607 7.00262 10.757 7.08296C10.6533 7.1633 10.5666 7.26341 10.5019 7.3775L7.7875 12.1453C7.51656 12.6209 7.65406 13.2244 8.125 13.5L8.5625 13.75C8.84769 13.9141 9.17099 14.0003 9.5 14C9.69094 14 9.90375 13.9587 10.0853 13.9191C10.7188 13.7812 12.2188 12.9375 12.9725 10.9234C13.7262 8.90937 14 7.83344 14 7C14 5.15625 13.2359 3.39594 11.8488 2.04562Z" fill="#3B3B3B"/>
</svg>
