<svg width="15" height="14" viewBox="0 0 15 14" fill="none" xmlns="http://www.w3.org/2000/svg">
<g clip-path="url(#clip0_228_6555)">
<path d="M1.25 7.12234C1.25 5.74929 1.25 5.06277 1.56152 4.49364C1.87304 3.92453 2.44217 3.57131 3.58042 2.86488L4.78042 2.12012C5.98363 1.37337 6.58526 1 7.25 1C7.91474 1 8.51636 1.37337 9.7196 2.12012L10.9196 2.86487C12.0579 3.57131 12.627 3.92453 12.9385 4.49364C13.25 5.06277 13.25 5.74929 13.25 7.12234V8.035C13.25 10.3755 13.25 11.5458 12.547 12.2729C11.8441 13 10.7127 13 8.45 13H6.05C3.78726 13 2.65589 13 1.95294 12.2729C1.25 11.5458 1.25 10.3755 1.25 8.035V7.12234Z" fill="#DCA4F4" stroke="#DCA4F4"/>
<path d="M7.25 11C8.90685 11 10.25 9.65685 10.25 8C10.25 6.34315 8.90685 5 7.25 5C5.59315 5 4.25 6.34315 4.25 8C4.25 9.65685 5.59315 11 7.25 11Z" fill="white"/>
<path d="M7.25 10C8.35457 10 9.25 9.10457 9.25 8C9.25 6.89543 8.35457 6 7.25 6C6.14543 6 5.25 6.89543 5.25 8C5.25 9.10457 6.14543 10 7.25 10Z" fill="#DCA4F4"/>
</g>
<defs>
<clipPath id="clip0_228_6555">
<rect width="14" height="14" fill="white" transform="translate(0.25)"/>
</clipPath>
</defs>
</svg>
