<svg width="36" height="43" viewBox="0 0 36 43" fill="none" xmlns="http://www.w3.org/2000/svg">
<g clip-path="url(#clip0_69_1021)">
<path d="M34.8501 0.532352C35.4157 1.03505 35.7508 1.83935 35.7508 2.68555V8.71787V30.8364C35.7508 34.5395 32.7483 37.5389 29.0476 37.5389C25.3468 37.5389 22.3443 34.5395 22.3443 30.8364C22.3443 27.1332 25.3468 24.1338 29.0476 24.1338C29.8296 24.1338 30.5837 24.2678 31.282 24.5192V12.3205L13.4066 18.755V36.1984C13.4066 39.9016 10.4041 42.901 6.70328 42.901C3.00251 42.901 0 39.9016 0 36.1984C0 32.4953 3.00251 29.4959 6.70328 29.4959C7.48533 29.4959 8.23945 29.6299 8.93771 29.8813V16.761V10.7286C8.93771 9.54731 9.58709 8.50004 10.5297 8.15653L32.874 0.113441C33.5513 -0.129527 34.2845 0.021281 34.8501 0.532352Z" fill="#DCA4F4"/>
</g>
<defs>
<clipPath id="clip0_69_1021">
<rect width="35.7508" height="42.901" fill="white"/>
</clipPath>
</defs>
</svg>
