<svg width="13" height="15" viewBox="0 0 13 15" fill="none" xmlns="http://www.w3.org/2000/svg">
<path d="M6.87462 0.800783C6.62499 0.800783 6.41993 0.882814 6.25945 1.04688C6.09896 1.21095 6.01872 1.42058 6.01872 1.67578V2.19528C5.02018 2.41408 4.20886 2.91538 3.58477 3.69918C2.94285 4.48306 2.61297 5.41276 2.59514 6.48828V7.00781C2.57731 8.32031 2.14937 9.47786 1.3113 10.4805L1.09733 10.7266C0.865523 11 0.820945 11.3099 0.963594 11.6563C1.12407 11.9844 1.38263 12.1576 1.73925 12.1758H12.01C12.3666 12.1576 12.6251 11.9844 12.7857 11.6563C12.9283 11.3099 12.8837 11 12.6519 10.7266L12.4647 10.4805C11.6088 9.4961 11.1719 8.33854 11.1541 7.00781V6.48828C11.1363 5.41276 10.8064 4.48306 10.1645 3.69918C9.54038 2.91538 8.72906 2.41408 7.73051 2.19528V1.67578C7.73051 1.42058 7.65027 1.21095 7.48979 1.04688C7.32931 0.882814 7.12425 0.800783 6.87462 0.800783ZM8.07822 14.2812C8.41701 13.9349 8.58641 13.5247 8.58641 13.0508H6.87462H5.16283C5.16283 13.5247 5.33223 13.9349 5.67102 14.2812C6.00981 14.6276 6.41101 14.8008 6.87462 14.8008C7.33823 14.8008 7.73943 14.6276 8.07822 14.2812Z" fill="#6C6C6C"/>
</svg>
