<svg width="32" height="32" viewBox="0 0 32 32" fill="none" xmlns="http://www.w3.org/2000/svg">
  <rect x="0.5" y="0.5" width="31" height="31" rx="15.5" stroke="#DCA4F4" />
  <path
    d="M12.2594 9.08105C11.3999 9.08105 10.7026 9.78777 10.7026 10.6588V20.1256C10.7026 20.9967 11.3999 21.7034 12.2594 21.7034H13.2972C14.1567 21.7034 14.854 20.9967 14.854 20.1256V10.6588C14.854 9.78777 14.1567 9.08105 13.2972 9.08105H12.2594ZM18.4864 9.08105C17.627 9.08105 16.9297 9.78777 16.9297 10.6588V20.1256C16.9297 20.9967 17.627 21.7034 18.4864 21.7034H19.5243C20.3837 21.7034 21.081 20.9967 21.081 20.1256V10.6588C21.081 9.78777 20.3837 9.08105 19.5243 9.08105H18.4864Z"
    fill="#DCA4F4"
  />
</svg>
