<svg width="14" height="14" viewBox="0 0 14 14" fill="none" xmlns="http://www.w3.org/2000/svg">
<path d="M11.375 5.98828C11.3568 7.26432 10.9922 8.38541 10.2812 9.35156L13.7539 12.7969C13.918 12.9792 14 13.1888 14 13.4258C14 13.6628 13.918 13.8724 13.7539 14.0547C13.5716 14.2188 13.362 14.3008 13.125 14.3008C12.888 14.3008 12.6784 14.2188 12.4961 14.0547L9.05078 10.582C8.08463 11.293 6.96354 11.6576 5.6875 11.6758C4.08333 11.6393 2.74349 11.0833 1.66797 10.0078C0.592448 8.93229 0.0364583 7.59245 0 5.98828C0.0364583 4.38408 0.592448 3.04425 1.66797 1.96878C2.74349 0.893248 4.08333 0.337248 5.6875 0.300781C7.29167 0.337248 8.63151 0.893248 9.70703 1.96878C10.7825 3.04425 11.3385 4.38408 11.375 5.98828ZM5.6875 9.92578C6.39844 9.92578 7.05469 9.75261 7.65625 9.40625C8.25781 9.0599 8.74088 8.57682 9.10547 7.95703C9.45182 7.33724 9.625 6.68099 9.625 5.98828C9.625 5.29557 9.45182 4.63934 9.10547 4.01958C8.74088 3.39978 8.25781 2.91668 7.65625 2.57028C7.05469 2.22395 6.39844 2.05078 5.6875 2.05078C4.97656 2.05078 4.32031 2.22395 3.71875 2.57028C3.11719 2.91668 2.63412 3.39978 2.26953 4.01958C1.92318 4.63934 1.75 5.29557 1.75 5.98828C1.75 6.68099 1.92318 7.33724 2.26953 7.95703C2.63412 8.57682 3.11719 9.0599 3.71875 9.40625C4.32031 9.75261 4.97656 9.92578 5.6875 9.92578Z" fill="#6C6C6C"/>
</svg>
