<svg width="14" height="15" viewBox="0 0 14 15" fill="none" xmlns="http://www.w3.org/2000/svg">
<path d="M11.375 6.48828C11.3568 7.76432 10.9922 8.88541 10.2812 9.85156L13.7539 13.2969C13.918 13.4792 14 13.6888 14 13.9258C14 14.1628 13.918 14.3724 13.7539 14.5547C13.5716 14.7188 13.362 14.8008 13.125 14.8008C12.888 14.8008 12.6784 14.7188 12.4961 14.5547L9.05078 11.082C8.08463 11.793 6.96354 12.1576 5.6875 12.1758C4.08333 12.1393 2.74349 11.5833 1.66797 10.5078C0.592448 9.43229 0.0364583 8.09245 0 6.48828C0.0364583 4.88408 0.592448 3.54425 1.66797 2.46878C2.74349 1.39325 4.08333 0.837248 5.6875 0.800781C7.29167 0.837248 8.63151 1.39325 9.70703 2.46878C10.7825 3.54425 11.3385 4.88408 11.375 6.48828ZM5.6875 10.4258C6.39844 10.4258 7.05469 10.2526 7.65625 9.90625C8.25781 9.5599 8.74088 9.07682 9.10547 8.45703C9.45182 7.83724 9.625 7.18099 9.625 6.48828C9.625 5.79557 9.45182 5.13934 9.10547 4.51958C8.74088 3.89978 8.25781 3.41668 7.65625 3.07028C7.05469 2.72395 6.39844 2.55078 5.6875 2.55078C4.97656 2.55078 4.32031 2.72395 3.71875 3.07028C3.11719 3.41668 2.63412 3.89978 2.26953 4.51958C1.92318 5.13934 1.75 5.79557 1.75 6.48828C1.75 7.18099 1.92318 7.83724 2.26953 8.45703C2.63412 9.07682 3.11719 9.5599 3.71875 9.90625C4.32031 10.2526 4.97656 10.4258 5.6875 10.4258Z" fill="#6C6C6C"/>
</svg>
