<svg width="14" height="14" viewBox="0 0 14 14" fill="none" xmlns="http://www.w3.org/2000/svg">
<g clip-path="url(#clip0_174_9097)">
<path d="M6.99984 12.8334C10.2215 12.8334 12.8332 10.2217 12.8332 7.00008C12.8332 3.77842 10.2215 1.16675 6.99984 1.16675C3.77817 1.16675 1.1665 3.77842 1.1665 7.00008C1.1665 7.93324 1.38562 8.81518 1.77519 9.59737C1.87872 9.80521 1.91318 10.0428 1.85316 10.2671L1.50572 11.5657C1.35489 12.1293 1.87059 12.645 2.43429 12.4942L3.73281 12.1468C3.95713 12.0867 4.19471 12.1212 4.40256 12.2247C5.18472 12.6143 6.06668 12.8334 6.99984 12.8334Z" fill="#D083EF" stroke="#D083EF"/>
<path d="M4.6665 7H4.67175M6.99459 7H6.99984M9.32792 7H9.33317" stroke="white" stroke-linecap="round" stroke-linejoin="round"/>
</g>
<defs>
<clipPath id="clip0_174_9097">
<rect width="14" height="14" fill="white"/>
</clipPath>
</defs>
</svg>
