<svg width="14" height="14" viewBox="0 0 14 14" fill="none" xmlns="http://www.w3.org/2000/svg">
<g clip-path="url(#clip0_165_2292)">
<path d="M1 7.12234C1 5.74929 1 5.06277 1.31152 4.49364C1.62304 3.92453 2.19217 3.57131 3.33042 2.86488L4.53042 2.12012C5.73363 1.37337 6.33526 1 7 1C7.66474 1 8.26636 1.37337 9.4696 2.12012L10.6696 2.86487C11.8079 3.57131 12.377 3.92453 12.6885 4.49364C13 5.06277 13 5.74929 13 7.12234V8.035C13 10.3755 13 11.5458 12.297 12.2729C11.5941 13 10.4627 13 8.2 13H5.8C3.53726 13 2.40589 13 1.70294 12.2729C1 11.5458 1 10.3755 1 8.035V7.12234Z" fill="#DCA4F4" stroke="#DCA4F4" stroke-width="2"/>
<path d="M7 11C8.65685 11 10 9.65685 10 8C10 6.34315 8.65685 5 7 5C5.34315 5 4 6.34315 4 8C4 9.65685 5.34315 11 7 11Z" fill="white"/>
<path d="M7 10C8.10457 10 9 9.10457 9 8C9 6.89543 8.10457 6 7 6C5.89543 6 5 6.89543 5 8C5 9.10457 5.89543 10 7 10Z" fill="#DCA4F4"/>
</g>
<defs>
<clipPath id="clip0_165_2292">
<rect width="14" height="14" fill="white"/>
</clipPath>
</defs>
</svg>
