<svg width="14" height="14" viewBox="0 0 14 14" fill="none" xmlns="http://www.w3.org/2000/svg">
<mask id="path-1-inside-1_165_2300" fill="white">
<path fill-rule="evenodd" clip-rule="evenodd" d="M1.875 14H11.5C11.5 11.5838 9.34537 9.625 6.6875 9.625C4.02963 9.625 1.875 11.5838 1.875 14Z"/>
</mask>
<path fill-rule="evenodd" clip-rule="evenodd" d="M1.875 14H11.5C11.5 11.5838 9.34537 9.625 6.6875 9.625C4.02963 9.625 1.875 11.5838 1.875 14Z" fill="#B6B6B6"/>
<path d="M1.875 14H0.875V15H1.875V14ZM11.5 14V15H12.5V14H11.5ZM1.875 15H11.5V13H1.875V15ZM12.5 14C12.5 10.9439 9.80583 8.625 6.6875 8.625V10.625C8.88491 10.625 10.5 12.2236 10.5 14H12.5ZM6.6875 8.625C3.56917 8.625 0.875 10.9439 0.875 14H2.875C2.875 12.2236 4.49009 10.625 6.6875 10.625V8.625Z" fill="#B6B6B6" mask="url(#path-1-inside-1_165_2300)"/>
<path d="M11.875 5.6875C11.875 8.55248 9.55248 10.875 6.6875 10.875C3.82252 10.875 1.5 8.55248 1.5 5.6875C1.5 2.82252 3.82252 0.5 6.6875 0.5C9.55248 0.5 11.875 2.82252 11.875 5.6875Z" fill="#B6B6B6" stroke="#B6B6B6"/>
<mask id="path-4-inside-2_165_2300" fill="white">
<path d="M4.5 4.59375C4.5 5.19785 4.5 5.6875 4.0625 5.6875C3.625 5.6875 3.625 5.19785 3.625 4.59375C3.625 3.98965 3.625 3.5 4.0625 3.5C4.5 3.5 4.5 3.98965 4.5 4.59375Z"/>
</mask>
<path d="M3.5 4.59375C3.5 4.75125 3.49974 4.86756 3.49453 4.96733C3.48913 5.07057 3.48035 5.10475 3.48143 5.10084C3.48217 5.09815 3.51394 4.97748 3.64665 4.85809C3.71539 4.79626 3.79531 4.74969 3.87828 4.72082C3.95839 4.69295 4.02399 4.6875 4.0625 4.6875V6.6875C4.37211 6.6875 4.70708 6.5943 4.98421 6.34501C5.23997 6.11494 5.35377 5.8341 5.4092 5.63349C5.50841 5.27442 5.5 4.84096 5.5 4.59375H3.5ZM4.0625 4.6875C4.10101 4.6875 4.16661 4.69295 4.24672 4.72082C4.32969 4.74969 4.40961 4.79626 4.47835 4.85809C4.61106 4.97748 4.64283 5.09815 4.64357 5.10084C4.64465 5.10475 4.63587 5.07057 4.63047 4.96733C4.62526 4.86756 4.625 4.75125 4.625 4.59375H2.625C2.625 4.84096 2.61659 5.27442 2.7158 5.63349C2.77123 5.8341 2.88503 6.11494 3.14079 6.34501C3.41792 6.5943 3.75289 6.6875 4.0625 6.6875V4.6875ZM4.625 4.59375C4.625 4.43625 4.62526 4.31994 4.63047 4.22017C4.63587 4.11693 4.64465 4.08275 4.64357 4.08666C4.64283 4.08935 4.61106 4.21002 4.47835 4.32941C4.40961 4.39124 4.32969 4.43781 4.24672 4.46668C4.16661 4.49455 4.10101 4.5 4.0625 4.5V2.5C3.75289 2.5 3.41792 2.5932 3.14079 2.84249C2.88503 3.07256 2.77123 3.3534 2.7158 3.55401C2.61659 3.91308 2.625 4.34654 2.625 4.59375H4.625ZM4.0625 4.5C4.02399 4.5 3.95839 4.49455 3.87828 4.46668C3.79531 4.43781 3.71539 4.39124 3.64665 4.32941C3.51394 4.21002 3.48217 4.08935 3.48143 4.08666C3.48035 4.08275 3.48913 4.11693 3.49453 4.22017C3.49974 4.31994 3.5 4.43625 3.5 4.59375H5.5C5.5 4.34654 5.50841 3.91308 5.4092 3.55401C5.35377 3.3534 5.23997 3.07256 4.98421 2.84249C4.70708 2.5932 4.37211 2.5 4.0625 2.5V4.5Z" fill="white" mask="url(#path-4-inside-2_165_2300)"/>
<mask id="path-6-inside-3_165_2300" fill="white">
<path d="M8 4.59375C8 5.19785 8 5.6875 7.5625 5.6875C7.125 5.6875 7.125 5.19785 7.125 4.59375C7.125 3.98965 7.125 3.5 7.5625 3.5C8 3.5 8 3.98965 8 4.59375Z"/>
</mask>
<path d="M7 4.59375C7 4.75125 6.99974 4.86756 6.99453 4.96733C6.98913 5.07057 6.98035 5.10475 6.98143 5.10084C6.98217 5.09815 7.01394 4.97748 7.14665 4.85809C7.21539 4.79626 7.29531 4.74969 7.37828 4.72082C7.45839 4.69295 7.52399 4.6875 7.5625 4.6875V6.6875C7.87211 6.6875 8.20708 6.5943 8.48421 6.34501C8.73997 6.11494 8.85377 5.8341 8.9092 5.63349C9.00841 5.27442 9 4.84096 9 4.59375H7ZM7.5625 4.6875C7.60101 4.6875 7.66661 4.69295 7.74672 4.72082C7.82969 4.74969 7.90961 4.79626 7.97835 4.85809C8.11106 4.97748 8.14283 5.09815 8.14357 5.10084C8.14465 5.10475 8.13587 5.07057 8.13047 4.96733C8.12526 4.86756 8.125 4.75125 8.125 4.59375H6.125C6.125 4.84096 6.11659 5.27442 6.2158 5.63349C6.27123 5.8341 6.38503 6.11494 6.64079 6.34501C6.91792 6.5943 7.25289 6.6875 7.5625 6.6875V4.6875ZM8.125 4.59375C8.125 4.43625 8.12526 4.31994 8.13047 4.22017C8.13587 4.11693 8.14465 4.08275 8.14357 4.08666C8.14283 4.08935 8.11106 4.21002 7.97835 4.32941C7.90961 4.39124 7.82969 4.43781 7.74672 4.46668C7.66661 4.49455 7.60101 4.5 7.5625 4.5V2.5C7.25289 2.5 6.91792 2.5932 6.64079 2.84249C6.38503 3.07256 6.27123 3.3534 6.2158 3.55401C6.11659 3.91308 6.125 4.34654 6.125 4.59375H8.125ZM7.5625 4.5C7.52399 4.5 7.45839 4.49455 7.37828 4.46668C7.29531 4.43781 7.21539 4.39124 7.14665 4.32941C7.01394 4.21002 6.98217 4.08935 6.98143 4.08666C6.98035 4.08275 6.98913 4.11693 6.99453 4.22017C6.99974 4.31994 7 4.43625 7 4.59375H9C9 4.34654 9.00841 3.91308 8.9092 3.55401C8.85377 3.3534 8.73997 3.07256 8.48421 2.84249C8.20708 2.5932 7.87211 2.5 7.5625 2.5V4.5Z" fill="white" mask="url(#path-6-inside-3_165_2300)"/>
</svg>
